Bench12-Cond-Black.ufo
<glyph name="percent" format="1">
  <advance width="995"/>
  <unicode hex="0025"/>
  <outline>
    <contour>
      <point x="343" y="-82" type="curve" smooth="yes"/>
      <point x="400" y="-82" type="line" smooth="yes"/>
      <point x="415" y="-82"/>
      <point x="429" y="-54"/>
      <point x="436" y="-12" type="curve" smooth="yes"/>
      <point x="659" y="1466" type="line" smooth="yes"/>
      <point x="665" y="1499"/>
      <point x="657" y="1536"/>
      <point x="645" y="1536" type="curve" smooth="yes"/>
      <point x="588" y="1536" type="line" smooth="yes"/>
      <point x="572" y="1536"/>
      <point x="557" y="1508"/>
      <point x="551" y="1466" type="curve" smooth="yes"/>
      <point x="327" y="-12" type="line" smooth="yes"/>
      <point x="322" y="-45"/>
      <point x="330" y="-82"/>
    </contour>
    <contour>
      <point x="241" y="729" type="curve" smooth="yes"/>
      <point x="202" y="729"/>
      <point x="184" y="834"/>
      <point x="184" y="1018" type="curve" smooth="yes"/>
      <point x="184" y="1206"/>
      <point x="203" y="1317"/>
      <point x="241" y="1317" type="curve" smooth="yes"/>
      <point x="278" y="1317"/>
      <point x="298" y="1206"/>
      <point x="298" y="1018" type="curve" smooth="yes"/>
      <point x="298" y="834"/>
      <point x="279" y="729"/>
    </contour>
    <contour>
      <point x="241" y="549" type="curve" smooth="yes"/>
      <point x="342" y="549"/>
      <point x="394" y="788"/>
      <point x="394" y="1026" type="curve" smooth="yes"/>
      <point x="394" y="1262"/>
      <point x="344" y="1497"/>
      <point x="241" y="1497" type="curve" smooth="yes"/>
      <point x="137" y="1497"/>
      <point x="87" y="1262"/>
      <point x="87" y="1026" type="curve" smooth="yes"/>
      <point x="87" y="788"/>
      <point x="139" y="549"/>
    </contour>
    <contour>
      <point x="753" y="133" type="curve" smooth="yes"/>
      <point x="715" y="133"/>
      <point x="696" y="238"/>
      <point x="696" y="422" type="curve" smooth="yes"/>
      <point x="696" y="610"/>
      <point x="716" y="721"/>
      <point x="753" y="721" type="curve" smooth="yes"/>
      <point x="790" y="721"/>
      <point x="811" y="610"/>
      <point x="811" y="422" type="curve" smooth="yes"/>
      <point x="811" y="238"/>
      <point x="792" y="133"/>
    </contour>
    <contour>
      <point x="753" y="-47" type="curve" smooth="yes"/>
      <point x="855" y="-47"/>
      <point x="907" y="193"/>
      <point x="907" y="430" type="curve" smooth="yes"/>
      <point x="907" y="666"/>
      <point x="856" y="901"/>
      <point x="753" y="901" type="curve" smooth="yes"/>
      <point x="650" y="901"/>
      <point x="600" y="666"/>
      <point x="600" y="430" type="curve" smooth="yes"/>
      <point x="600" y="193"/>
      <point x="652" y="-47"/>
    </contour>
  </outline>
</glyph>
<glyph name="parenleft" format="1">
  <advance width="442"/>
  <unicode hex="0028"/>
  <outline>
    <contour>
      <point x="326" y="-143" type="curve" smooth="yes"/>
      <point x="339" y="-146"/>
      <point x="352" y="-111"/>
      <point x="352" y="-73" type="curve" smooth="yes"/>
      <point x="352" y="27" type="line" smooth="yes"/>
      <point x="352" y="96"/>
      <point x="348" y="117"/>
      <point x="327" y="147" type="curve" smooth="yes"/>
      <point x="281" y="213"/>
      <point x="259" y="456"/>
      <point x="259" y="698" type="curve" smooth="yes"/>
      <point x="259" y="941"/>
      <point x="282" y="1185"/>
      <point x="327" y="1251" type="curve" smooth="yes"/>
      <point x="348" y="1282"/>
      <point x="352" y="1303"/>
      <point x="352" y="1372" type="curve" smooth="yes"/>
      <point x="352" y="1470" type="line" smooth="yes"/>
      <point x="352" y="1508"/>
      <point x="339" y="1543"/>
      <point x="326" y="1540" type="curve" smooth="yes"/>
      <point x="169" y="1499"/>
      <point x="91" y="1098"/>
      <point x="91" y="698" type="curve" smooth="yes"/>
      <point x="91" y="297"/>
      <point x="169" y="-103"/>
    </contour>
  </outline>
</glyph>
<glyph name="parenright" format="1">
  <advance width="446"/>
  <unicode hex="0029"/>
  <outline>
    <contour>
      <point x="118" y="-143" type="curve" smooth="yes"/>
      <point x="275" y="-103"/>
      <point x="353" y="297"/>
      <point x="353" y="698" type="curve" smooth="yes"/>
      <point x="353" y="1098"/>
      <point x="275" y="1499"/>
      <point x="118" y="1540" type="curve" smooth="yes"/>
      <point x="105" y="1543"/>
      <point x="92" y="1508"/>
      <point x="92" y="1470" type="curve" smooth="yes"/>
      <point x="92" y="1372" type="line" smooth="yes"/>
      <point x="92" y="1303"/>
      <point x="97" y="1282"/>
      <point x="118" y="1251" type="curve" smooth="yes"/>
      <point x="163" y="1185"/>
      <point x="186" y="941"/>
      <point x="186" y="698" type="curve" smooth="yes"/>
      <point x="186" y="456"/>
      <point x="163" y="213"/>
      <point x="117" y="147" type="curve" smooth="yes"/>
      <point x="96" y="117"/>
      <point x="92" y="96"/>
      <point x="92" y="27" type="curve" smooth="yes"/>
      <point x="92" y="-73" type="line" smooth="yes"/>
      <point x="92" y="-111"/>
      <point x="105" y="-146"/>
    </contour>
  </outline>
</glyph>
<glyph name="plus" format="1">
  <advance width="763"/>
  <unicode hex="002B"/>
  <outline>
    <contour>
      <point x="320" y="250" type="curve" smooth="yes"/>
      <point x="442" y="250" type="line" smooth="yes"/>
      <point x="460" y="250"/>
      <point x="473" y="254"/>
      <point x="473" y="295" type="curve" smooth="yes"/>
      <point x="473" y="509" type="line" smooth="yes"/>
      <point x="473" y="529"/>
      <point x="480" y="531"/>
      <point x="490" y="531" type="curve" smooth="yes"/>
      <point x="649" y="531" type="line" smooth="yes"/>
      <point x="665" y="531"/>
      <point x="680" y="535"/>
      <point x="680" y="576" type="curve" smooth="yes"/>
      <point x="680" y="623" type="line" smooth="yes"/>
      <point x="680" y="665"/>
      <point x="665" y="668"/>
      <point x="649" y="668" type="curve" smooth="yes"/>
      <point x="490" y="668" type="line" smooth="yes"/>
      <point x="480" y="668"/>
      <point x="473" y="670"/>
      <point x="473" y="690" type="curve" smooth="yes"/>
      <point x="473" y="891" type="line" smooth="yes"/>
      <point x="473" y="932"/>
      <point x="460" y="936"/>
      <point x="442" y="936" type="curve" smooth="yes"/>
      <point x="320" y="936" type="line" smooth="yes"/>
      <point x="301" y="936"/>
      <point x="287" y="932"/>
      <point x="287" y="891" type="curve" smooth="yes"/>
      <point x="287" y="690" type="line" smooth="yes"/>
      <point x="287" y="670"/>
      <point x="281" y="668"/>
      <point x="272" y="668" type="curve" smooth="yes"/>
      <point x="110" y="668" type="line" smooth="yes"/>
      <point x="93" y="668"/>
      <point x="79" y="665"/>
      <point x="79" y="623" type="curve" smooth="yes"/>
      <point x="79" y="576" type="line" smooth="yes"/>
      <point x="79" y="535"/>
      <point x="93" y="531"/>
      <point x="110" y="531" type="curve" smooth="yes"/>
      <point x="272" y="531" type="line" smooth="yes"/>
      <point x="281" y="531"/>
      <point x="287" y="529"/>
      <point x="287" y="509" type="curve" smooth="yes"/>
      <point x="287" y="295" type="line" smooth="yes"/>
      <point x="287" y="254"/>
      <point x="301" y="250"/>
    </contour>
  </outline>
</glyph>
<glyph name="hyphen" format="1">
  <advance width="582"/>
  <unicode hex="002D"/>
  <outline>
    <contour>
      <point x="110" y="526" type="curve" smooth="yes"/>
      <point x="469" y="526" type="line" smooth="yes"/>
      <point x="484" y="526"/>
      <point x="495" y="530"/>
      <point x="495" y="573" type="curve" smooth="yes"/>
      <point x="495" y="671" type="line" smooth="yes"/>
      <point x="495" y="714"/>
      <point x="484" y="718"/>
      <point x="469" y="718" type="curve" smooth="yes"/>
      <point x="110" y="718" type="line" smooth="yes"/>
      <point x="95" y="718"/>
      <point x="83" y="714"/>
      <point x="83" y="671" type="curve" smooth="yes"/>
      <point x="83" y="573" type="line" smooth="yes"/>
      <point x="83" y="530"/>
      <point x="95" y="526"/>
    </contour>
  </outline>
</glyph>
<glyph name="colon" format="1">
  <advance width="328"/>
  <unicode hex="003A"/>
  <outline>
    <contour>
      <point x="125" y="0" type="curve" smooth="yes"/>
      <point x="202" y="0" type="line" smooth="yes"/>
      <point x="217" y="0"/>
      <point x="229" y="34"/>
      <point x="229" y="77" type="curve" smooth="yes"/>
      <point x="229" y="273" type="line" smooth="yes"/>
      <point x="229" y="316"/>
      <point x="217" y="350"/>
      <point x="202" y="350" type="curve" smooth="yes"/>
      <point x="125" y="350" type="line" smooth="yes"/>
      <point x="110" y="350"/>
      <point x="98" y="316"/>
      <point x="98" y="273" type="curve" smooth="yes"/>
      <point x="98" y="77" type="line" smooth="yes"/>
      <point x="98" y="34"/>
      <point x="110" y="0"/>
    </contour>
    <contour>
      <point x="125" y="656" type="curve" smooth="yes"/>
      <point x="202" y="656" type="line" smooth="yes"/>
      <point x="217" y="656"/>
      <point x="229" y="690"/>
      <point x="229" y="733" type="curve" smooth="yes"/>
      <point x="229" y="929" type="line" smooth="yes"/>
      <point x="229" y="972"/>
      <point x="217" y="1006"/>
      <point x="202" y="1006" type="curve" smooth="yes"/>
      <point x="125" y="1006" type="line" smooth="yes"/>
      <point x="110" y="1006"/>
      <point x="98" y="972"/>
      <point x="98" y="929" type="curve" smooth="yes"/>
      <point x="98" y="733" type="line" smooth="yes"/>
      <point x="98" y="690"/>
      <point x="110" y="656"/>
    </contour>
  </outline>
</glyph>
<glyph name="semicolon" format="1">
  <advance width="333"/>
  <unicode hex="003B"/>
  <outline>
    <contour>
      <point x="125" y="-342" type="curve" smooth="yes"/>
      <point x="173" y="-319"/>
      <point x="235" y="-212"/>
      <point x="235" y="25" type="curve" smooth="yes"/>
      <point x="235" y="273" type="line" smooth="yes"/>
      <point x="235" y="316"/>
      <point x="223" y="350"/>
      <point x="209" y="350" type="curve" smooth="yes"/>
      <point x="120" y="350" type="line" smooth="yes"/>
      <point x="105" y="350"/>
      <point x="99" y="316"/>
      <point x="99" y="273" type="curve" smooth="yes"/>
      <point x="99" y="70" type="line" smooth="yes"/>
      <point x="99" y="32"/>
      <point x="106" y="0"/>
      <point x="120" y="0" type="curve" smooth="yes"/>
      <point x="146" y="0" type="line" smooth="yes"/>
      <point x="151" y="0"/>
      <point x="152" y="-11"/>
      <point x="152" y="-27" type="curve" smooth="yes"/>
      <point x="152" y="-51"/>
      <point x="146" y="-128"/>
      <point x="123" y="-171" type="curve" smooth="yes"/>
      <point x="108" y="-198"/>
      <point x="99" y="-192"/>
      <point x="99" y="-246" type="curve" smooth="yes"/>
      <point x="99" y="-297" type="line" smooth="yes"/>
      <point x="99" y="-333"/>
      <point x="113" y="-348"/>
    </contour>
    <contour>
      <point x="125" y="656" type="curve" smooth="yes"/>
      <point x="202" y="656" type="line" smooth="yes"/>
      <point x="217" y="656"/>
      <point x="229" y="690"/>
      <point x="229" y="733" type="curve" smooth="yes"/>
      <point x="229" y="929" type="line" smooth="yes"/>
      <point x="229" y="972"/>
      <point x="217" y="1006"/>
      <point x="202" y="1006" type="curve" smooth="yes"/>
      <point x="125" y="1006" type="line" smooth="yes"/>
      <point x="110" y="1006"/>
      <point x="98" y="972"/>
      <point x="98" y="929" type="curve" smooth="yes"/>
      <point x="98" y="733" type="line" smooth="yes"/>
      <point x="98" y="690"/>
      <point x="110" y="656"/>
    </contour>
  </outline>
</glyph>
<glyph name="less" format="1">
  <advance width="536"/>
  <unicode hex="003C"/>
  <outline>
    <contour>
      <point x="420" y="-100" type="curve" smooth="yes"/>
      <point x="427" y="-100"/>
      <point x="435" y="-81"/>
      <point x="435" y="-54" type="curve" smooth="yes"/>
      <point x="435" y="326" type="line" smooth="yes"/>
      <point x="435" y="372"/>
      <point x="426" y="416"/>
      <point x="411" y="436" type="curve" smooth="yes"/>
      <point x="239" y="674" type="line"/>
      <point x="236" y="677"/>
      <point x="235" y="684"/>
      <point x="235" y="690" type="curve" smooth="yes"/>
      <point x="235" y="696"/>
      <point x="236" y="702"/>
      <point x="238" y="706" type="curve"/>
      <point x="411" y="942" type="line" smooth="yes"/>
      <point x="425" y="961"/>
      <point x="435" y="1005"/>
      <point x="435" y="1051" type="curve" smooth="yes"/>
      <point x="435" y="1461" type="line" smooth="yes"/>
      <point x="435" y="1488"/>
      <point x="427" y="1507"/>
      <point x="419" y="1507" type="curve" smooth="yes"/>
      <point x="417" y="1507"/>
      <point x="415" y="1506"/>
      <point x="412" y="1502" type="curve"/>
      <point x="114" y="1035" type="line" smooth="yes"/>
      <point x="100" y="1013"/>
      <point x="91" y="969"/>
      <point x="91" y="922" type="curve" smooth="yes"/>
      <point x="91" y="505" type="line" smooth="yes"/>
      <point x="91" y="458"/>
      <point x="99" y="413"/>
      <point x="113" y="391" type="curve" smooth="yes"/>
      <point x="412" y="-94" type="line"/>
      <point x="415" y="-98"/>
      <point x="418" y="-100"/>
    </contour>
  </outline>
</glyph>
<glyph name="L" format="1">
  <advance width="742"/>
  <unicode hex="004C"/>
  <outline>
    <contour>
      <point x="130" y="0" type="curve" smooth="yes"/>
      <point x="635" y="0" type="line" smooth="yes"/>
      <point x="650" y="0"/>
      <point x="662" y="4"/>
      <point x="662" y="47" type="curve" smooth="yes"/>
      <point x="662" y="168" type="line" smooth="yes"/>
      <point x="662" y="211"/>
      <point x="650" y="215"/>
      <point x="635" y="215" type="curve" smooth="yes"/>
      <point x="378" y="215" type="line" smooth="yes"/>
      <point x="371" y="215"/>
      <point x="365" y="219"/>
      <point x="365" y="239" type="curve" smooth="yes"/>
      <point x="365" y="1391" type="line" smooth="yes"/>
      <point x="365" y="1434"/>
      <point x="353" y="1438"/>
      <point x="339" y="1438" type="curve" smooth="yes"/>
      <point x="130" y="1438" type="line" smooth="yes"/>
      <point x="115" y="1438"/>
      <point x="103" y="1434"/>
      <point x="103" y="1391" type="curve" smooth="yes"/>
      <point x="103" y="47" type="line" smooth="yes"/>
      <point x="103" y="4"/>
      <point x="115" y="0"/>
    </contour>
  </outline>
</glyph>
<glyph name="M" format="1">
  <advance width="1136"/>
  <unicode hex="004D"/>
  <outline>
    <contour>
      <point x="125" y="0" type="curve" smooth="yes"/>
      <point x="300" y="0" type="line" smooth="yes"/>
      <point x="315" y="0"/>
      <point x="326" y="4"/>
      <point x="326" y="47" type="curve" smooth="yes"/>
      <point x="340" y="758" type="line" smooth="yes"/>
      <point x="340" y="768"/>
      <point x="344" y="772"/>
      <point x="346" y="763" type="curve" smooth="yes"/>
      <point x="485" y="37" type="line" smooth="yes"/>
      <point x="494" y="-4"/>
      <point x="510" y="0"/>
      <point x="525" y="0" type="curve" smooth="yes"/>
      <point x="611" y="0" type="line" smooth="yes"/>
      <point x="628" y="0"/>
      <point x="643" y="-4"/>
      <point x="651" y="37" type="curve" smooth="yes"/>
      <point x="790" y="763" type="line" smooth="yes"/>
      <point x="792" y="772"/>
      <point x="797" y="768"/>
      <point x="797" y="758" type="curve" smooth="yes"/>
      <point x="811" y="47" type="line" smooth="yes"/>
      <point x="811" y="4"/>
      <point x="822" y="0"/>
      <point x="837" y="0" type="curve" smooth="yes"/>
      <point x="1010" y="0" type="line" smooth="yes"/>
      <point x="1026" y="0"/>
      <point x="1037" y="4"/>
      <point x="1037" y="47" type="curve" smooth="yes"/>
      <point x="1010" y="1387" type="line" smooth="yes"/>
      <point x="1010" y="1430"/>
      <point x="998" y="1438"/>
      <point x="984" y="1438" type="curve" smooth="yes"/>
      <point x="737" y="1438" type="line" smooth="yes"/>
      <point x="721" y="1438"/>
      <point x="705" y="1437"/>
      <point x="698" y="1397" type="curve" smooth="yes"/>
      <point x="574" y="722" type="line" smooth="yes"/>
      <point x="572" y="708"/>
      <point x="565" y="708"/>
      <point x="562" y="722" type="curve" smooth="yes"/>
      <point x="439" y="1397" type="line" smooth="yes"/>
      <point x="431" y="1437"/>
      <point x="416" y="1438"/>
      <point x="400" y="1438" type="curve" smooth="yes"/>
      <point x="153" y="1438" type="line" smooth="yes"/>
      <point x="138" y="1438"/>
      <point x="127" y="1430"/>
      <point x="127" y="1387" type="curve"/>
      <point x="99" y="47" type="line"/>
      <point x="99" y="4"/>
      <point x="111" y="0"/>
    </contour>
  </outline>
</glyph>
<glyph name="P" format="1">
  <advance width="935"/>
  <unicode hex="0050"/>
  <outline>
    <contour>
      <point x="130" y="0" type="curve" smooth="yes"/>
      <point x="338" y="0" type="line" smooth="yes"/>
      <point x="353" y="0"/>
      <point x="365" y="14"/>
      <point x="365" y="57" type="curve" smooth="yes"/>
      <point x="365" y="447" type="line" smooth="yes"/>
      <point x="365" y="467"/>
      <point x="371" y="469"/>
      <point x="377" y="469" type="curve" smooth="yes"/>
      <point x="384" y="469"/>
      <point x="504" y="469"/>
      <point x="542" y="469" type="curve" smooth="yes"/>
      <point x="711" y="469"/>
      <point x="843" y="537"/>
      <point x="843" y="950" type="curve" smooth="yes"/>
      <point x="843" y="1390"/>
      <point x="705" y="1438"/>
      <point x="519" y="1438" type="curve" smooth="yes"/>
      <point x="385" y="1438"/>
      <point x="264" y="1438"/>
      <point x="130" y="1438" type="curve" smooth="yes"/>
      <point x="115" y="1438"/>
      <point x="103" y="1432"/>
      <point x="103" y="1390" type="curve" smooth="yes"/>
      <point x="103" y="57" type="line" smooth="yes"/>
      <point x="103" y="14"/>
      <point x="115" y="0"/>
    </contour>
    <contour>
      <point x="467" y="682" type="curve" smooth="yes"/>
      <point x="377" y="682" type="line" smooth="yes"/>
      <point x="371" y="682"/>
      <point x="365" y="685"/>
      <point x="365" y="705" type="curve" smooth="yes"/>
      <point x="365" y="1198" type="line" smooth="yes"/>
      <point x="365" y="1218"/>
      <point x="371" y="1225"/>
      <point x="377" y="1225" type="curve" smooth="yes"/>
      <point x="455" y="1225" type="line" smooth="yes"/>
      <point x="534" y="1225"/>
      <point x="581" y="1201"/>
      <point x="581" y="948" type="curve" smooth="yes"/>
      <point x="581" y="729"/>
      <point x="573" y="682"/>
    </contour>
  </outline>
</glyph>
<glyph name="Q" format="1">
  <advance width="981"/>
  <unicode hex="0051"/>
  <outline>
    <contour>
      <point x="568" y="-430" type="curve" smooth="yes"/>
      <point x="673" y="-392" type="line" smooth="yes"/>
      <point x="696" y="-384"/>
      <point x="690" y="-326"/>
      <point x="683" y="-288" type="curve" smooth="yes"/>
      <point x="632" y="-17" type="line"/>
      <point x="806" y="34"/>
      <point x="887" y="214"/>
      <point x="887" y="721" type="curve" smooth="yes"/>
      <point x="887" y="1343"/>
      <point x="752" y="1468"/>
      <point x="490" y="1468" type="curve" smooth="yes"/>
      <point x="229" y="1468"/>
      <point x="93" y="1343"/>
      <point x="93" y="721" type="curve" smooth="yes"/>
      <point x="93" y="129"/>
      <point x="204" y="-18"/>
      <point x="444" y="-33" type="curve"/>
      <point x="501" y="-363" type="line" smooth="yes"/>
      <point x="512" y="-428"/>
      <point x="546" y="-438"/>
    </contour>
    <contour>
      <point x="489" y="195" type="curve" smooth="yes"/>
      <point x="383" y="195"/>
      <point x="355" y="298"/>
      <point x="355" y="721" type="curve" smooth="yes"/>
      <point x="355" y="1144"/>
      <point x="381" y="1245"/>
      <point x="491" y="1245" type="curve" smooth="yes"/>
      <point x="602" y="1245"/>
      <point x="625" y="1144"/>
      <point x="625" y="721" type="curve" smooth="yes"/>
      <point x="625" y="298"/>
      <point x="596" y="195"/>
    </contour>
  </outline>
</glyph>
<glyph name="R" format="1">
  <advance width="941"/>
  <unicode hex="0052"/>
  <outline>
    <contour>
      <point x="130" y="0" type="curve" smooth="yes"/>
      <point x="338" y="0" type="line" smooth="yes"/>
      <point x="353" y="0"/>
      <point x="365" y="4"/>
      <point x="365" y="47" type="curve" smooth="yes"/>
      <point x="365" y="572" type="line" smooth="yes"/>
      <point x="365" y="592"/>
      <point x="371" y="599"/>
      <point x="377" y="599" type="curve" smooth="yes"/>
      <point x="453" y="599" type="line" smooth="yes"/>
      <point x="460" y="599"/>
      <point x="468" y="599"/>
      <point x="476" y="598" type="curve"/>
      <point x="509" y="596"/>
      <point x="545" y="585"/>
      <point x="556" y="527" type="curve" smooth="yes"/>
      <point x="573" y="443"/>
      <point x="578" y="132"/>
      <point x="584" y="38" type="curve" smooth="yes"/>
      <point x="587" y="-15"/>
      <point x="597" y="0"/>
      <point x="619" y="0" type="curve" smooth="yes"/>
      <point x="829" y="0" type="line" smooth="yes"/>
      <point x="839" y="0"/>
      <point x="843" y="21"/>
      <point x="843" y="47" type="curve" smooth="yes"/>
      <point x="843" y="69"/>
      <point x="839" y="303"/>
      <point x="837" y="363" type="curve" smooth="yes"/>
      <point x="825" y="618"/>
      <point x="780" y="680"/>
      <point x="693" y="723" type="curve"/>
      <point x="692" y="723"/>
      <point x="692" y="725"/>
      <point x="692" y="727" type="curve" smooth="yes"/>
      <point x="692" y="729"/>
      <point x="692" y="731"/>
      <point x="693" y="732" type="curve"/>
      <point x="768" y="759"/>
      <point x="831" y="818"/>
      <point x="831" y="1032" type="curve" smooth="yes"/>
      <point x="831" y="1381"/>
      <point x="695" y="1438"/>
      <point x="522" y="1438" type="curve" smooth="yes"/>
      <point x="405" y="1438"/>
      <point x="130" y="1438"/>
      <point x="130" y="1438" type="curve"/>
      <point x="115" y="1438"/>
      <point x="103" y="1434"/>
      <point x="103" y="1391" type="curve" smooth="yes"/>
      <point x="103" y="47" type="line" smooth="yes"/>
      <point x="103" y="4"/>
      <point x="115" y="0"/>
    </contour>
    <contour>
      <point x="470" y="823" type="curve" smooth="yes"/>
      <point x="377" y="823" type="line" smooth="yes"/>
      <point x="371" y="823"/>
      <point x="365" y="840"/>
      <point x="365" y="860" type="curve" smooth="yes"/>
      <point x="365" y="1199" type="line" smooth="yes"/>
      <point x="365" y="1219"/>
      <point x="371" y="1225"/>
      <point x="377" y="1225" type="curve" smooth="yes"/>
      <point x="436" y="1225" type="line" smooth="yes"/>
      <point x="550" y="1225"/>
      <point x="569" y="1153"/>
      <point x="569" y="1026" type="curve" smooth="yes"/>
      <point x="569" y="956"/>
      <point x="559" y="823"/>
    </contour>
  </outline>
</glyph>
<glyph name="S" format="1">
  <advance width="982"/>
  <unicode hex="0053"/>
  <outline>
    <contour>
      <point x="504" y="-21" type="curve" smooth="yes"/>
      <point x="737" y="-21"/>
      <point x="902" y="126"/>
      <point x="876" y="447" type="curve" smooth="yes"/>
      <point x="855" y="701"/>
      <point x="702" y="771"/>
      <point x="541" y="865" type="curve" smooth="yes"/>
      <point x="418" y="937"/>
      <point x="385" y="984"/>
      <point x="385" y="1042" type="curve" smooth="yes"/>
      <point x="385" y="1174"/>
      <point x="483" y="1199"/>
      <point x="557" y="1199" type="curve" smooth="yes"/>
      <point x="615" y="1199"/>
      <point x="692" y="1178"/>
      <point x="766" y="1106" type="curve" smooth="yes"/>
      <point x="781" y="1092"/>
      <point x="796" y="1110"/>
      <point x="803" y="1150" type="curve"/>
      <point x="841" y="1273" type="line"/>
      <point x="847" y="1308"/>
      <point x="840" y="1325"/>
      <point x="828" y="1339" type="curve" smooth="yes"/>
      <point x="737" y="1441"/>
      <point x="605" y="1455"/>
      <point x="515" y="1455" type="curve" smooth="yes"/>
      <point x="343" y="1455"/>
      <point x="94" y="1354"/>
      <point x="116" y="1015" type="curve" smooth="yes"/>
      <point x="130" y="806"/>
      <point x="218" y="763"/>
      <point x="388" y="652" type="curve" smooth="yes"/>
      <point x="509" y="573"/>
      <point x="607" y="535"/>
      <point x="607" y="395" type="curve" smooth="yes"/>
      <point x="607" y="263"/>
      <point x="537" y="237"/>
      <point x="450" y="237" type="curve" smooth="yes"/>
      <point x="362" y="237"/>
      <point x="264" y="268"/>
      <point x="170" y="336" type="curve" smooth="yes"/>
      <point x="155" y="347"/>
      <point x="142" y="337"/>
      <point x="133" y="298" type="curve" smooth="yes"/>
      <point x="98" y="162" type="line" smooth="yes"/>
      <point x="90" y="127"/>
      <point x="108" y="101"/>
      <point x="122" y="90" type="curve" smooth="yes"/>
      <point x="239" y="0"/>
      <point x="387" y="-21"/>
    </contour>
  </outline>
</glyph>
<glyph name="V" format="1">
  <advance width="928"/>
  <unicode hex="0056"/>
  <outline>
    <contour>
      <point x="363" y="0" type="curve" smooth="yes"/>
      <point x="569" y="0" type="line" smooth="yes"/>
      <point x="586" y="0"/>
      <point x="601" y="27"/>
      <point x="608" y="67" type="curve" smooth="yes"/>
      <point x="850" y="1371" type="line" smooth="yes"/>
      <point x="855" y="1401"/>
      <point x="848" y="1438"/>
      <point x="836" y="1438" type="curve" smooth="yes"/>
      <point x="657" y="1438" type="line" smooth="yes"/>
      <point x="640" y="1438"/>
      <point x="624" y="1411"/>
      <point x="617" y="1371" type="curve" smooth="yes"/>
      <point x="477" y="613" type="line"/>
      <point x="337" y="1371" type="line" smooth="yes"/>
      <point x="330" y="1411"/>
      <point x="315" y="1438"/>
      <point x="298" y="1438" type="curve" smooth="yes"/>
      <point x="91" y="1438" type="line" smooth="yes"/>
      <point x="79" y="1438"/>
      <point x="71" y="1401"/>
      <point x="76" y="1371" type="curve" smooth="yes"/>
      <point x="324" y="67" type="line" smooth="yes"/>
      <point x="331" y="27"/>
      <point x="346" y="0"/>
    </contour>
  </outline>
</glyph>
<glyph name="X" format="1">
  <advance width="940"/>
  <unicode hex="0058"/>
  <outline>
    <contour>
      <point x="98" y="0" type="curve" smooth="yes"/>
      <point x="265" y="0" type="line" smooth="yes"/>
      <point x="281" y="0"/>
      <point x="298" y="20"/>
      <point x="310" y="51" type="curve" smooth="yes"/>
      <point x="432" y="367" type="line"/>
      <point x="538" y="55" type="line" smooth="yes"/>
      <point x="549" y="21"/>
      <point x="566" y="0"/>
      <point x="583" y="0" type="curve" smooth="yes"/>
      <point x="847" y="0" type="line" smooth="yes"/>
      <point x="854" y="0"/>
      <point x="858" y="16"/>
      <point x="858" y="33" type="curve" smooth="yes"/>
      <point x="858" y="40"/>
      <point x="857" y="48"/>
      <point x="855" y="55" type="curve" smooth="yes"/>
      <point x="606" y="818" type="line"/>
      <point x="825" y="1387" type="line"/>
      <point x="828" y="1393"/>
      <point x="829" y="1401"/>
      <point x="829" y="1408" type="curve" smooth="yes"/>
      <point x="829" y="1423"/>
      <point x="825" y="1438"/>
      <point x="819" y="1438" type="curve" smooth="yes"/>
      <point x="651" y="1438" type="line" smooth="yes"/>
      <point x="635" y="1438"/>
      <point x="617" y="1418"/>
      <point x="605" y="1387" type="curve" smooth="yes"/>
      <point x="505" y="1126" type="line"/>
      <point x="421" y="1383" type="line" smooth="yes"/>
      <point x="410" y="1416"/>
      <point x="393" y="1438"/>
      <point x="377" y="1438" type="curve" smooth="yes"/>
      <point x="98" y="1438" type="line" smooth="yes"/>
      <point x="92" y="1438"/>
      <point x="87" y="1422"/>
      <point x="87" y="1406" type="curve" smooth="yes"/>
      <point x="87" y="1398"/>
      <point x="89" y="1390"/>
      <point x="90" y="1383" type="curve"/>
      <point x="330" y="671" type="line"/>
      <point x="92" y="51" type="line"/>
      <point x="89" y="45"/>
      <point x="88" y="37"/>
      <point x="88" y="30" type="curve" smooth="yes"/>
      <point x="88" y="15"/>
      <point x="92" y="0"/>
    </contour>
  </outline>
</glyph>
<glyph name="backslash" format="1">
  <advance width="585"/>
  <unicode hex="005C"/>
  <outline>
    <contour>
      <point x="320" y="-207" type="curve" smooth="yes"/>
      <point x="504" y="-205" type="line" smooth="yes"/>
      <point x="509" y="-205"/>
      <point x="513" y="-187"/>
      <point x="511" y="-170" type="curve" smooth="yes"/>
      <point x="276" y="1612" type="line" smooth="yes"/>
      <point x="274" y="1633"/>
      <point x="267" y="1647"/>
      <point x="260" y="1647" type="curve" smooth="yes"/>
      <point x="77" y="1647" type="line" smooth="yes"/>
      <point x="71" y="1647"/>
      <point x="67" y="1629"/>
      <point x="69" y="1612" type="curve" smooth="yes"/>
      <point x="304" y="-172" type="line" smooth="yes"/>
      <point x="307" y="-193"/>
      <point x="313" y="-207"/>
    </contour>
  </outline>
</glyph>
<glyph name="a" format="1">
  <advance width="784"/>
  <unicode hex="0061"/>
  <outline>
    <contour>
      <point x="299" y="-41" type="curve" smooth="yes"/>
      <point x="424" y="-41"/>
      <point x="506" y="59"/>
      <point x="545" y="210" type="curve"/>
      <point x="548" y="219"/>
      <point x="550" y="222"/>
      <point x="551" y="222" type="curve" smooth="yes"/>
      <point x="554" y="222"/>
      <point x="556" y="216"/>
      <point x="557" y="207" type="curve" smooth="yes"/>
      <point x="560" y="183"/>
      <point x="576" y="79"/>
      <point x="585" y="36" type="curve" smooth="yes"/>
      <point x="592" y="1"/>
      <point x="607" y="-20"/>
      <point x="620" y="-20" type="curve" smooth="yes"/>
      <point x="666" y="-20" type="line" smooth="yes"/>
      <point x="679" y="-20"/>
      <point x="688" y="8"/>
      <point x="688" y="43" type="curve" smooth="yes"/>
      <point x="688" y="631" type="line" smooth="yes"/>
      <point x="688" y="980"/>
      <point x="538" y="1053"/>
      <point x="378" y="1053" type="curve" smooth="yes"/>
      <point x="212" y="1053"/>
      <point x="126" y="989"/>
      <point x="106" y="846" type="curve" smooth="yes"/>
      <point x="104" y="833"/>
      <point x="103" y="816"/>
      <point x="103" y="802" type="curve" smooth="yes"/>
      <point x="103" y="785"/>
      <point x="107" y="766"/>
      <point x="113" y="765" type="curve"/>
      <point x="259" y="728" type="line" smooth="yes"/>
      <point x="263" y="727"/>
      <point x="265" y="726"/>
      <point x="267" y="726" type="curve" smooth="yes"/>
      <point x="274" y="726"/>
      <point x="278" y="730"/>
      <point x="286" y="750" type="curve" smooth="yes"/>
      <point x="312" y="815"/>
      <point x="351" y="840"/>
      <point x="379" y="840" type="curve" smooth="yes"/>
      <point x="444" y="840"/>
      <point x="469" y="772"/>
      <point x="469" y="653" type="curve" smooth="yes"/>
      <point x="469" y="647"/>
      <point x="469" y="646"/>
      <point x="469" y="639" type="curve" smooth="yes"/>
      <point x="469" y="594"/>
      <point x="93" y="646"/>
      <point x="93" y="238" type="curve" smooth="yes"/>
      <point x="93" y="62"/>
      <point x="177" y="-41"/>
    </contour>
    <contour>
      <point x="341" y="187" type="curve" smooth="yes"/>
      <point x="314" y="187"/>
      <point x="297" y="220"/>
      <point x="297" y="274" type="curve" smooth="yes"/>
      <point x="297" y="367"/>
      <point x="367" y="408"/>
      <point x="459" y="447" type="curve"/>
      <point x="461" y="448"/>
      <point x="462" y="448"/>
      <point x="463" y="448" type="curve" smooth="yes"/>
      <point x="473" y="448"/>
      <point x="474" y="427"/>
      <point x="474" y="413" type="curve" smooth="yes"/>
      <point x="474" y="298"/>
      <point x="414" y="187"/>
    </contour>
  </outline>
</glyph>
<glyph name="c" format="1">
  <advance width="724"/>
  <unicode hex="0063"/>
  <outline>
    <contour>
      <point x="396" y="-41" type="curve" smooth="yes"/>
      <point x="471" y="-41"/>
      <point x="547" y="-5"/>
      <point x="604" y="46" type="curve" smooth="yes"/>
      <point x="618" y="58"/>
      <point x="633" y="81"/>
      <point x="622" y="134" type="curve"/>
      <point x="622" y="134"/>
      <point x="615" y="159"/>
      <point x="615" y="160" type="curve"/>
      <point x="605" y="193"/>
      <point x="591" y="230"/>
      <point x="577" y="216" type="curve" smooth="yes"/>
      <point x="537" y="175"/>
      <point x="477" y="144"/>
      <point x="428" y="144" type="curve" smooth="yes"/>
      <point x="358" y="144"/>
      <point x="304" y="199"/>
      <point x="304" y="510" type="curve" smooth="yes"/>
      <point x="304" y="769"/>
      <point x="345" y="851"/>
      <point x="410" y="859" type="curve" smooth="yes"/>
      <point x="479" y="868"/>
      <point x="537" y="816"/>
      <point x="577" y="777" type="curve" smooth="yes"/>
      <point x="591" y="764"/>
      <point x="609" y="769"/>
      <point x="612" y="805" type="curve"/>
      <point x="612" y="805"/>
      <point x="618" y="877"/>
      <point x="618" y="877" type="curve"/>
      <point x="621" y="920"/>
      <point x="615" y="937"/>
      <point x="601" y="952" type="curve" smooth="yes"/>
      <point x="546" y="1013"/>
      <point x="470" y="1053"/>
      <point x="391" y="1053" type="curve" smooth="yes"/>
      <point x="241" y="1053"/>
      <point x="88" y="909"/>
      <point x="88" y="510" type="curve" smooth="yes"/>
      <point x="88" y="94"/>
      <point x="241" y="-41"/>
    </contour>
  </outline>
</glyph>
<glyph name="e" format="1">
  <advance width="757"/>
  <unicode hex="0065"/>
  <outline>
    <contour>
      <point x="410" y="-31" type="curve" smooth="yes"/>
      <point x="583" y="-31"/>
      <point x="658" y="83"/>
      <point x="658" y="223" type="curve" smooth="yes"/>
      <point x="658" y="254"/>
      <point x="655" y="294"/>
      <point x="638" y="294" type="curve" smooth="yes"/>
      <point x="628" y="294"/>
      <point x="513" y="294"/>
      <point x="502" y="294" type="curve"/>
      <point x="496" y="232"/>
      <point x="487" y="144"/>
      <point x="415" y="144" type="curve" smooth="yes"/>
      <point x="359" y="144"/>
      <point x="305" y="199"/>
      <point x="305" y="421" type="curve" smooth="yes"/>
      <point x="305" y="437"/>
      <point x="308" y="455"/>
      <point x="314" y="455" type="curve" smooth="yes"/>
      <point x="652" y="455" type="line" smooth="yes"/>
      <point x="658" y="455"/>
      <point x="663" y="466"/>
      <point x="664" y="484" type="curve" smooth="yes"/>
      <point x="665" y="496"/>
      <point x="665" y="506"/>
      <point x="665" y="520" type="curve" smooth="yes"/>
      <point x="665" y="936"/>
      <point x="528" y="1043"/>
      <point x="407" y="1043" type="curve" smooth="yes"/>
      <point x="272" y="1043"/>
      <point x="88" y="961"/>
      <point x="88" y="504" type="curve" smooth="yes"/>
      <point x="88" y="37"/>
      <point x="274" y="-31"/>
    </contour>
    <contour>
      <point x="474" y="615" type="curve" smooth="yes"/>
      <point x="310" y="615" type="line" smooth="yes"/>
      <point x="305" y="615"/>
      <point x="305" y="634"/>
      <point x="305" y="648" type="curve" smooth="yes"/>
      <point x="307" y="779"/>
      <point x="346" y="859"/>
      <point x="394" y="859" type="curve" smooth="yes"/>
      <point x="442" y="859"/>
      <point x="475" y="775"/>
      <point x="478" y="643" type="curve" smooth="yes"/>
      <point x="478" y="630"/>
      <point x="478" y="615"/>
    </contour>
  </outline>
</glyph>
<glyph name="g" format="1">
  <advance width="708"/>
  <unicode hex="0067"/>
  <outline>
    <contour>
      <point x="347" y="-670" type="curve" smooth="yes"/>
      <point x="578" y="-670"/>
      <point x="624" y="-494"/>
      <point x="624" y="-238" type="curve" smooth="yes"/>
      <point x="624" y="-23"/>
      <point x="580" y="185"/>
      <point x="423" y="185" type="curve" smooth="yes"/>
      <point x="325" y="185" type="line" smooth="yes"/>
      <point x="259" y="185"/>
      <point x="222" y="193"/>
      <point x="222" y="257" type="curve" smooth="yes"/>
      <point x="222" y="273"/>
      <point x="224" y="312"/>
      <point x="226" y="327" type="curve"/>
      <point x="229" y="343"/>
      <point x="238" y="355"/>
      <point x="245" y="351" type="curve" smooth="yes"/>
      <point x="274" y="333"/>
      <point x="312" y="322"/>
      <point x="355" y="322" type="curve" smooth="yes"/>
      <point x="530" y="322"/>
      <point x="583" y="518"/>
      <point x="583" y="731" type="curve" smooth="yes"/>
      <point x="583" y="861"/>
      <point x="545" y="968"/>
      <point x="493" y="1033" type="curve" smooth="yes"/>
      <point x="487" y="1041"/>
      <point x="484" y="1062"/>
      <point x="488" y="1079" type="curve" smooth="yes"/>
      <point x="549" y="1369" type="line" smooth="yes"/>
      <point x="555" y="1397"/>
      <point x="549" y="1434"/>
      <point x="538" y="1434" type="curve" smooth="yes"/>
      <point x="456" y="1434" type="line" smooth="yes"/>
      <point x="441" y="1434"/>
      <point x="427" y="1402"/>
      <point x="425" y="1359" type="curve" smooth="yes"/>
      <point x="409" y="1131" type="line" smooth="yes"/>
      <point x="408" y="1112"/>
      <point x="401" y="1098"/>
      <point x="394" y="1100" type="curve"/>
      <point x="378" y="1106"/>
      <point x="362" y="1114"/>
      <point x="341" y="1114" type="curve" smooth="yes"/>
      <point x="162" y="1114"/>
      <point x="96" y="934"/>
      <point x="96" y="731" type="curve" smooth="yes"/>
      <point x="96" y="631"/>
      <point x="118" y="526"/>
      <point x="150" y="449" type="curve"/>
      <point x="153" y="443"/>
      <point x="153" y="436"/>
      <point x="153" y="429" type="curve" smooth="yes"/>
      <point x="153" y="421"/>
      <point x="152" y="413"/>
      <point x="149" y="408" type="curve" smooth="yes"/>
      <point x="119" y="354"/>
      <point x="97" y="256"/>
      <point x="97" y="152" type="curve" smooth="yes"/>
      <point x="97" y="54"/>
      <point x="126" y="-52"/>
      <point x="167" y="-109" type="curve" smooth="yes"/>
      <point x="170" y="-113"/>
      <point x="171" y="-119"/>
      <point x="171" y="-126" type="curve" smooth="yes"/>
      <point x="171" y="-131"/>
      <point x="170" y="-137"/>
      <point x="168" y="-141" type="curve" smooth="yes"/>
      <point x="123" y="-221"/>
      <point x="104" y="-332"/>
      <point x="104" y="-406" type="curve" smooth="yes"/>
      <point x="104" y="-557"/>
      <point x="181" y="-670"/>
    </contour>
    <contour>
      <point x="341" y="-389" type="curve" smooth="yes"/>
      <point x="275" y="-389"/>
      <point x="242" y="-346"/>
      <point x="242" y="-301" type="curve" smooth="yes"/>
      <point x="242" y="-275"/>
      <point x="276" y="-181"/>
      <point x="282" y="-181" type="curve" smooth="yes"/>
      <point x="435" y="-181" type="line" smooth="yes"/>
      <point x="468" y="-181"/>
      <point x="489" y="-240"/>
      <point x="489" y="-283" type="curve" smooth="yes"/>
      <point x="489" y="-332"/>
      <point x="485" y="-389"/>
    </contour>
    <contour>
      <point x="341" y="582" type="curve" smooth="yes"/>
      <point x="290" y="582"/>
      <point x="263" y="649"/>
      <point x="263" y="735" type="curve" smooth="yes"/>
      <point x="263" y="813"/>
      <point x="289" y="881"/>
      <point x="341" y="881" type="curve" smooth="yes"/>
      <point x="391" y="881"/>
      <point x="419" y="807"/>
      <point x="419" y="723" type="curve" smooth="yes"/>
      <point x="419" y="645"/>
      <point x="394" y="582"/>
    </contour>
  </outline>
</glyph>
<glyph name="k" format="1">
  <advance width="800"/>
  <unicode hex="006B"/>
  <outline>
    <contour>
      <point x="130" y="0" type="curve" smooth="yes"/>
      <point x="285" y="0" type="line" smooth="yes"/>
      <point x="299" y="0"/>
      <point x="311" y="34"/>
      <point x="311" y="77" type="curve" smooth="yes"/>
      <point x="311" y="207" type="line" smooth="yes"/>
      <point x="311" y="230"/>
      <point x="314" y="253"/>
      <point x="320" y="268" type="curve" smooth="yes"/>
      <point x="358" y="361" type="line"/>
      <point x="359" y="367"/>
      <point x="363" y="370"/>
      <point x="366" y="370" type="curve" smooth="yes"/>
      <point x="370" y="370"/>
      <point x="372" y="366"/>
      <point x="375" y="358" type="curve"/>
      <point x="469" y="57" type="line" smooth="yes"/>
      <point x="480" y="22"/>
      <point x="488" y="0"/>
      <point x="503" y="0" type="curve" smooth="yes"/>
      <point x="698" y="0" type="line" smooth="yes"/>
      <point x="704" y="0"/>
      <point x="709" y="16"/>
      <point x="709" y="32" type="curve" smooth="yes"/>
      <point x="709" y="40"/>
      <point x="707" y="48"/>
      <point x="705" y="54" type="curve" smooth="yes"/>
      <point x="529" y="574" type="line"/>
      <point x="526" y="580"/>
      <point x="526" y="588"/>
      <point x="526" y="596" type="curve" smooth="yes"/>
      <point x="526" y="606"/>
      <point x="527" y="616"/>
      <point x="530" y="622" type="curve" smooth="yes"/>
      <point x="688" y="961" type="line"/>
      <point x="691" y="966"/>
      <point x="692" y="973"/>
      <point x="692" y="981" type="curve" smooth="yes"/>
      <point x="692" y="994"/>
      <point x="689" y="1006"/>
      <point x="684" y="1006" type="curve" smooth="yes"/>
      <point x="468" y="1006" type="line" smooth="yes"/>
      <point x="452" y="1006"/>
      <point x="433" y="988"/>
      <point x="421" y="960" type="curve" smooth="yes"/>
      <point x="321" y="743" type="line" smooth="yes"/>
      <point x="320" y="741"/>
      <point x="318" y="739"/>
      <point x="318" y="739" type="curve"/>
      <point x="314" y="739"/>
      <point x="311" y="747"/>
      <point x="311" y="758" type="curve" smooth="yes"/>
      <point x="311" y="1398" type="line" smooth="yes"/>
      <point x="311" y="1441"/>
      <point x="299" y="1475"/>
      <point x="285" y="1475" type="curve" smooth="yes"/>
      <point x="130" y="1475" type="line" smooth="yes"/>
      <point x="115" y="1475"/>
      <point x="103" y="1441"/>
      <point x="103" y="1398" type="curve" smooth="yes"/>
      <point x="103" y="77" type="line" smooth="yes"/>
      <point x="103" y="34"/>
      <point x="115" y="0"/>
    </contour>
  </outline>
</glyph>
<glyph name="l" format="1">
  <advance width="414"/>
  <unicode hex="006C"/>
  <outline>
    <contour>
      <point x="130" y="0" type="curve" smooth="yes"/>
      <point x="285" y="0" type="line" smooth="yes"/>
      <point x="299" y="0"/>
      <point x="311" y="34"/>
      <point x="311" y="77" type="curve" smooth="yes"/>
      <point x="311" y="1398" type="line" smooth="yes"/>
      <point x="311" y="1441"/>
      <point x="299" y="1475"/>
      <point x="285" y="1475" type="curve" smooth="yes"/>
      <point x="130" y="1475" type="line" smooth="yes"/>
      <point x="115" y="1475"/>
      <point x="103" y="1441"/>
      <point x="103" y="1398" type="curve" smooth="yes"/>
      <point x="103" y="77" type="line" smooth="yes"/>
      <point x="103" y="34"/>
      <point x="115" y="0"/>
    </contour>
  </outline>
</glyph>
<glyph name="m" format="1">
  <advance width="1130"/>
  <unicode hex="006D"/>
  <outline>
    <contour>
      <point x="125" y="0" type="curve" smooth="yes"/>
      <point x="280" y="0" type="line" smooth="yes"/>
      <point x="294" y="0"/>
      <point x="306" y="34"/>
      <point x="306" y="77" type="curve" smooth="yes"/>
      <point x="306" y="230"/>
      <point x="306" y="308"/>
      <point x="306" y="387" type="curve" smooth="yes"/>
      <point x="306" y="573"/>
      <point x="315" y="760"/>
      <point x="386" y="760" type="curve" smooth="yes"/>
      <point x="435" y="760"/>
      <point x="461" y="627"/>
      <point x="461" y="496" type="curve" smooth="yes"/>
      <point x="461" y="77" type="line" smooth="yes"/>
      <point x="461" y="34"/>
      <point x="472" y="0"/>
      <point x="488" y="0" type="curve" smooth="yes"/>
      <point x="643" y="0" type="line" smooth="yes"/>
      <point x="658" y="0"/>
      <point x="669" y="34"/>
      <point x="669" y="77" type="curve" smooth="yes"/>
      <point x="669" y="256" type="line" smooth="yes"/>
      <point x="669" y="336"/>
      <point x="669" y="463"/>
      <point x="669" y="464" type="curve" smooth="yes"/>
      <point x="669" y="727"/>
      <point x="711" y="760"/>
      <point x="746" y="760" type="curve" smooth="yes"/>
      <point x="801" y="760"/>
      <point x="824" y="680"/>
      <point x="824" y="496" type="curve" smooth="yes"/>
      <point x="824" y="77" type="line" smooth="yes"/>
      <point x="824" y="34"/>
      <point x="835" y="0"/>
      <point x="850" y="0" type="curve" smooth="yes"/>
      <point x="1010" y="0" type="line" smooth="yes"/>
      <point x="1025" y="0"/>
      <point x="1036" y="34"/>
      <point x="1036" y="77" type="curve" smooth="yes"/>
      <point x="1036" y="512" type="line" smooth="yes"/>
      <point x="1036" y="875"/>
      <point x="922" y="1053"/>
      <point x="802" y="1053" type="curve" smooth="yes"/>
      <point x="739" y="1053"/>
      <point x="675" y="994"/>
      <point x="632" y="882" type="curve"/>
      <point x="630" y="874"/>
      <point x="627" y="871"/>
      <point x="623" y="871" type="curve" smooth="yes"/>
      <point x="619" y="871"/>
      <point x="617" y="874"/>
      <point x="614" y="882" type="curve" smooth="yes"/>
      <point x="570" y="996"/>
      <point x="505" y="1053"/>
      <point x="437" y="1053" type="curve" smooth="yes"/>
      <point x="361" y="1053"/>
      <point x="288" y="971"/>
      <point x="248" y="811" type="curve" smooth="yes"/>
      <point x="246" y="803"/>
      <point x="244" y="800"/>
      <point x="241" y="800" type="curve" smooth="yes"/>
      <point x="238" y="800"/>
      <point x="235" y="804"/>
      <point x="233" y="812" type="curve" smooth="yes"/>
      <point x="204" y="942" type="line" smooth="yes"/>
      <point x="195" y="981"/>
      <point x="178" y="1006"/>
      <point x="163" y="1006" type="curve" smooth="yes"/>
      <point x="125" y="1006" type="line" smooth="yes"/>
      <point x="111" y="1006"/>
      <point x="99" y="972"/>
      <point x="99" y="929" type="curve" smooth="yes"/>
      <point x="99" y="77" type="line" smooth="yes"/>
      <point x="99" y="34"/>
      <point x="111" y="0"/>
    </contour>
  </outline>
</glyph>
<glyph name="u" format="1">
  <advance width="816"/>
  <unicode hex="0075"/>
  <outline>
    <contour>
      <point x="353" y="-41" type="curve" smooth="yes"/>
      <point x="437" y="-41"/>
      <point x="521" y="41"/>
      <point x="566" y="201" type="curve" smooth="yes"/>
      <point x="568" y="208"/>
      <point x="570" y="212"/>
      <point x="573" y="212" type="curve" smooth="yes"/>
      <point x="575" y="212"/>
      <point x="579" y="207"/>
      <point x="581" y="199" type="curve" smooth="yes"/>
      <point x="611" y="64" type="line" smooth="yes"/>
      <point x="620" y="25"/>
      <point x="636" y="0"/>
      <point x="652" y="0" type="curve" smooth="yes"/>
      <point x="689" y="0" type="line" smooth="yes"/>
      <point x="704" y="0"/>
      <point x="716" y="34"/>
      <point x="716" y="77" type="curve" smooth="yes"/>
      <point x="716" y="941" type="line" smooth="yes"/>
      <point x="716" y="984"/>
      <point x="704" y="1018"/>
      <point x="689" y="1018" type="curve" smooth="yes"/>
      <point x="534" y="1018" type="line" smooth="yes"/>
      <point x="519" y="1018"/>
      <point x="507" y="984"/>
      <point x="507" y="941" type="curve" smooth="yes"/>
      <point x="507" y="516" type="line" smooth="yes"/>
      <point x="507" y="383"/>
      <point x="475" y="252"/>
      <point x="408" y="252" type="curve" smooth="yes"/>
      <point x="344" y="252"/>
      <point x="311" y="385"/>
      <point x="311" y="516" type="curve" smooth="yes"/>
      <point x="311" y="941" type="line" smooth="yes"/>
      <point x="311" y="984"/>
      <point x="299" y="1018"/>
      <point x="285" y="1018" type="curve" smooth="yes"/>
      <point x="121" y="1018" type="line" smooth="yes"/>
      <point x="105" y="1018"/>
      <point x="94" y="984"/>
      <point x="94" y="941" type="curve" smooth="yes"/>
      <point x="94" y="500" type="line" smooth="yes"/>
      <point x="94" y="133"/>
      <point x="223" y="-41"/>
    </contour>
  </outline>
</glyph>
<glyph name="v" format="1">
  <advance width="776"/>
  <unicode hex="0076"/>
  <outline>
    <contour>
      <point x="283" y="0" type="curve" smooth="yes"/>
      <point x="482" y="0" type="line" smooth="yes"/>
      <point x="498" y="0"/>
      <point x="513" y="27"/>
      <point x="520" y="67" type="curve" smooth="yes"/>
      <point x="686" y="939" type="line" smooth="yes"/>
      <point x="687" y="946"/>
      <point x="689" y="954"/>
      <point x="689" y="961" type="curve" smooth="yes"/>
      <point x="689" y="984"/>
      <point x="682" y="1006"/>
      <point x="673" y="1006" type="curve" smooth="yes"/>
      <point x="523" y="1006" type="line" smooth="yes"/>
      <point x="507" y="1006"/>
      <point x="491" y="978"/>
      <point x="485" y="937" type="curve" smooth="yes"/>
      <point x="403" y="431" type="line" smooth="yes"/>
      <point x="402" y="424"/>
      <point x="400" y="421"/>
      <point x="398" y="421" type="curve" smooth="yes"/>
      <point x="396" y="421"/>
      <point x="394" y="424"/>
      <point x="392" y="431" type="curve"/>
      <point x="311" y="937" type="line" smooth="yes"/>
      <point x="304" y="978"/>
      <point x="290" y="1006"/>
      <point x="274" y="1006" type="curve" smooth="yes"/>
      <point x="98" y="1006" type="line" smooth="yes"/>
      <point x="89" y="1006"/>
      <point x="82" y="984"/>
      <point x="82" y="960" type="curve" smooth="yes"/>
      <point x="82" y="952"/>
      <point x="82" y="945"/>
      <point x="84" y="938" type="curve"/>
      <point x="244" y="68" type="line" smooth="yes"/>
      <point x="252" y="27"/>
      <point x="267" y="0"/>
    </contour>
  </outline>
</glyph>
<glyph name="z" format="1">
  <advance width="676"/>
  <unicode hex="007A"/>
  <outline>
    <contour>
      <point x="112" y="0" type="curve" smooth="yes"/>
      <point x="567" y="0" type="line" smooth="yes"/>
      <point x="573" y="0"/>
      <point x="580" y="17"/>
      <point x="580" y="37" type="curve" smooth="yes"/>
      <point x="580" y="237" type="line" smooth="yes"/>
      <point x="580" y="257"/>
      <point x="573" y="274"/>
      <point x="567" y="274" type="curve" smooth="yes"/>
      <point x="376" y="274" type="line"/>
      <point x="556" y="707" type="line" smooth="yes"/>
      <point x="562" y="722"/>
      <point x="566" y="745"/>
      <point x="566" y="768" type="curve" smooth="yes"/>
      <point x="566" y="969" type="line" smooth="yes"/>
      <point x="566" y="989"/>
      <point x="560" y="1006"/>
      <point x="554" y="1006" type="curve" smooth="yes"/>
      <point x="112" y="1006" type="line" smooth="yes"/>
      <point x="106" y="1006"/>
      <point x="100" y="989"/>
      <point x="100" y="969" type="curve" smooth="yes"/>
      <point x="100" y="768" type="line" smooth="yes"/>
      <point x="100" y="748"/>
      <point x="106" y="731"/>
      <point x="112" y="731" type="curve" smooth="yes"/>
      <point x="294" y="731" type="line"/>
      <point x="108" y="297" type="line" smooth="yes"/>
      <point x="102" y="283"/>
      <point x="98" y="260"/>
      <point x="98" y="237" type="curve" smooth="yes"/>
      <point x="98" y="37" type="line" smooth="yes"/>
      <point x="98" y="17"/>
      <point x="105" y="0"/>
    </contour>
  </outline>
</glyph>
<glyph name="braceleft" format="1">
  <advance width="500"/>
  <unicode hex="007B"/>
  <outline>
    <contour>
      <point x="292" y="-123" type="curve" smooth="yes"/>
      <point x="320" y="-123"/>
      <point x="354" y="-123"/>
      <point x="385" y="-123" type="curve" smooth="yes"/>
      <point x="399" y="-123"/>
      <point x="411" y="-88"/>
      <point x="411" y="-46" type="curve" smooth="yes"/>
      <point x="411" y="64" type="line" smooth="yes"/>
      <point x="411" y="116"/>
      <point x="402" y="147"/>
      <point x="385" y="158" type="curve" smooth="yes"/>
      <point x="297" y="214"/>
      <point x="372" y="572"/>
      <point x="290" y="695" type="curve" smooth="yes"/>
      <point x="285" y="702"/>
      <point x="285" y="718"/>
      <point x="290" y="725" type="curve" smooth="yes"/>
      <point x="372" y="848"/>
      <point x="297" y="1206"/>
      <point x="385" y="1262" type="curve" smooth="yes"/>
      <point x="402" y="1273"/>
      <point x="411" y="1304"/>
      <point x="411" y="1356" type="curve" smooth="yes"/>
      <point x="411" y="1466" type="line" smooth="yes"/>
      <point x="411" y="1508"/>
      <point x="399" y="1543"/>
      <point x="385" y="1543" type="curve" smooth="yes"/>
      <point x="354" y="1543"/>
      <point x="320" y="1543"/>
      <point x="292" y="1543" type="curve" smooth="yes"/>
      <point x="129" y="1543"/>
      <point x="209" y="942"/>
      <point x="109" y="857" type="curve" smooth="yes"/>
      <point x="90" y="841"/>
      <point x="83" y="812"/>
      <point x="83" y="756" type="curve" smooth="yes"/>
      <point x="83" y="664" type="line" smooth="yes"/>
      <point x="83" y="608"/>
      <point x="90" y="579"/>
      <point x="109" y="563" type="curve" smooth="yes"/>
      <point x="209" y="478"/>
      <point x="129" y="-123"/>
    </contour>
  </outline>
</glyph>
<glyph name="circumflex" format="1">
  <advance width="327"/>
  <unicode hex="02C6"/>
  <outline>
    <contour>
      <point x="43" y="1217" type="curve" smooth="yes"/>
      <point x="62" y="1217" type="line" smooth="yes"/>
      <point x="79" y="1217"/>
      <point x="93" y="1240"/>
      <point x="108" y="1275" type="curve" smooth="yes"/>
      <point x="149" y="1371" type="line" smooth="yes"/>
      <point x="153" y="1379"/>
      <point x="157" y="1383"/>
      <point x="161" y="1383" type="curve" smooth="yes"/>
      <point x="165" y="1383"/>
      <point x="168" y="1379"/>
      <point x="172" y="1371" type="curve" smooth="yes"/>
      <point x="213" y="1275" type="line" smooth="yes"/>
      <point x="228" y="1240"/>
      <point x="242" y="1217"/>
      <point x="261" y="1217" type="curve" smooth="yes"/>
      <point x="279" y="1217" type="line" smooth="yes"/>
      <point x="286" y="1217"/>
      <point x="290" y="1240"/>
      <point x="290" y="1263" type="curve" smooth="yes"/>
      <point x="290" y="1275"/>
      <point x="288" y="1286"/>
      <point x="286" y="1297" type="curve" smooth="yes"/>
      <point x="227" y="1527" type="line" smooth="yes"/>
      <point x="213" y="1577"/>
      <point x="194" y="1607"/>
      <point x="176" y="1607" type="curve" smooth="yes"/>
      <point x="145" y="1607" type="line" smooth="yes"/>
      <point x="128" y="1607"/>
      <point x="109" y="1577"/>
      <point x="95" y="1527" type="curve" smooth="yes"/>
      <point x="35" y="1297" type="line" smooth="yes"/>
      <point x="32" y="1286"/>
      <point x="31" y="1275"/>
      <point x="31" y="1263" type="curve" smooth="yes"/>
      <point x="31" y="1240"/>
      <point x="36" y="1217"/>
    </contour>
  </outline>
</glyph>
